<?xml version="1.0" encoding="utf-8"?>
<!-- Generator: Adobe Illustrator 18.0.0, SVG Export Plug-In . SVG Version: 6.00 Build 0)  -->
<!DOCTYPE svg PUBLIC "-//W3C//DTD SVG 1.1//EN" "http://www.w3.org/Graphics/SVG/1.1/DTD/svg11.dtd">
<svg xmlns="http://www.w3.org/2000/svg" xmlns:xlink="http://www.w3.org/1999/xlink" version="1.1" id="Слой_2" x="0px" y="0px" viewBox="592 0 391 1200" enable-background="new 592 0 391 1200" xml:space="preserve">
<path fill="#F35580" stroke="" stroke-width="2" stroke-miterlimit="10" d="M961.6,852.1c-5.2-31-9-94.3-12.9-120.7  s-14.2-83.3-12.3-84.6s11.6-17.4,15.5-23.2s0-27.1,0-42.6s-1.3-81.4-3.9-109.8c-2.6-28.4-8.4-60.7-8.4-60.7s3.9-2.6,6.5-5.2  s5.8-12.9,5.8-12.9s-9-17.4-11.6-22.6s-9-27.8-8.4-33.6c0.6-5.8,0.6-38.7-4.5-63.3c-5.2-24.5-16.8-53.6-16.8-53.6v-11.6L860.2,189  c0,0-1.9-10.3-4.5-18.1s-9-32.9-18.7-45.2s-23.2-18.1-22-18.7c1.3-0.6,4.5-9.7,5.2-16.1c0.6-6.5,6.5-22.6,3.9-41.3  C821.5,30.8,798.9,5,773,1.1s-45.8,2.6-61.9,18.7c-16.1,16.1-12.9,74.9-12.9,74.9s0.6,19.4,0,26.5s-12.3,80.1-12.3,80.1  s-15.5,4.5-26.5,9.7s-26.5,16.1-26.5,16.1l5.8,18.1c0,0-2.6,5.2-5.2,13.6c-2.6,8.4-11.6,46.5-12.3,61.3s-0.6,25.2-4.6,42  c-3.9,16.8-11.6,38.1-11.6,38.1s-2.6,7.7,0,10.3c2.6,2.6,11,7.1,11,7.1s1.3,5.8,0,12.9c-1.3,7.1-5.2,25.2-5.2,36.2s0,71.7,0,88.5  c0,0,0,12.3,0.6,18.7c0.6,6.5,3.2,12.9,6.5,19.6c3.2,6.7,14.2,49.5,17.4,59.8c2.1,6.6,12.4,18.6,19.6,26.3  c-1.1,16.3-2.3,30-3.4,35.6c-3.2,16.1-10.3,75.5-12.9,97.5c-2.6,22-25.2,140.1-25.2,140.1s9,5.8,18.7,8.4c9.7,2.6,23.2,6.5,43.9,8.4  s48.4,1.9,48.4,1.9s4.5,16.1,7.7,31c3.2,14.9,12.3,51.7,14.2,60.7c1.9,9,0.6,32.9-0.6,38.1c-1.3,5.2-9,26.5-10.3,33.6  s-5.2,13.6-12.3,27.8c-7.1,14.2,2.6,21.3,7.1,27.8s11.6,4.5,23.9,1.3c7.8-2.1,18.5-9.1,25.9-15.8c0.7,6.6,2.2,19,16.8,19  c14.9,0,34.2-12.9,39.4-18.1s0-24.5,1.9-33.6c1.9-9,3.9-36.8,3.9-43.3s-5.2-31.6-1.9-53.6c3.3-22,19.4-74.3,19.4-74.3  s26.5-1.9,62.6-11.6c36.2-9.7,50.4-22.6,50.4-22.6S966.8,883.1,961.6,852.1z M680.7,433.1c-3.9,3.9-8.4,23.9-11.6,42  c-3.2,17.7-6.6,98.4-8.6,121c-9.8-24-15.6-20.6-11.9-35.1c4.5-17.4,23.7-138.2,23.7-138.2l5.8-1.9l-0.6-29.1l5.2-4.5l2.6,38.1  C685.2,425.3,684.6,429.2,680.7,433.1z M788.3,971.6l8.6,1.3c0,0-0.6,26.5,0,52.9c0.6,26.5,2.6,51,0,59.4c-0.4,1.2-0.8,3-1.3,5.2  c-2.9-8.2-5.9-17.5-7.3-25.2C784.8,1046.5,788.3,971.6,788.3,971.6z M780.8,1135.6c1.4-4.2,5-5.5,8-5.9c-0.3,2.7-0.5,4.9-0.5,6.5  c-0.1,3.9-1.5,10-3.2,16.3C782.4,1146.3,779.4,1139.8,780.8,1135.6z M911.2,542.8c0-3.2-7.1-34.2-11-49.7s-29.7-71-29.7-71V384  l3.9,4.5l2.6,25.2h5.8c0,0-2.6,2.6,7.1,34.9s24.5,98.8,24.5,98.8S911.2,546.1,911.2,542.8z"/>
</svg>
